<?xml version="1.0" encoding="utf-8"?>
<!-- Generator: Adobe Illustrator 19.1.0, SVG Export Plug-In . SVG Version: 6.00 Build 0)  -->
<!DOCTYPE svg PUBLIC "-//W3C//DTD SVG 1.1//EN" "http://www.w3.org/Graphics/SVG/1.1/DTD/svg11.dtd">
<svg version="1.1" xmlns="http://www.w3.org/2000/svg" xmlns:xlink="http://www.w3.org/1999/xlink" x="0px" y="0px"
	 viewBox="0 0 1600 340.2" style="enable-background:new 0 0 1600 340.2;" xml:space="preserve">
<style type="text/css">
	.st0{fill:#FCFCFC;}
	.st1{fill:#FFFFFF;}
</style>
<g id="Layer_2">
</g>
<g id="Layer_1">
	<g id="XMLID_2_">
		<g>
			<path class="st0" d="M1537.1,306.3c3,10.8-22.8,12.8-30.6,14.4c-38.2,7.4-84.2,5.6-125.5,3.8c-61.6-2.6-119.8,1-177.2,1
				c-227,0-471.7-4.5-703.9-1c-58.6,0.9-117.7,1.9-176.2,1.9c-58.9,0-117.4-5.3-174.3-2.9c-20.9,0.9-41.1,6.4-56.5-4.8
				c5.8-14.2,31.1-14.7,48.8-16.3c28.1-2.5,57.4,0,86.2,0c341.4,0,739.6,0,1100.4,0c56.2,0,112,1.9,165.7-2.9
				C1502,298.9,1535,298.8,1537.1,306.3z"/>
			<path class="st0" d="M1503.5,41c7.8,1.3,18.4,3.5,18.2,13.4c-16.9,7.3-37.1,6.7-56.5,6.7c-142.8,0-292.3-0.1-437.7,0
				c-3.1-3,1.8-14,0-22c-0.1-1.4-0.2-2.7,1-2.9c125.8,1.2,252.6,0,382.1,0C1442,36.3,1475.9,36.5,1503.5,41z"/>
			<path class="st0" d="M1514.1,247c2.8,11.4-0.1,24.6-2.9,33.5c-43.1-2.7-85.4,11.3-125.5-1c1.3-0.2,4-1.5,4.8-4.8
				c-1.9-5.3-3.2-8-7.7-6.7c2.7-5.4,6-5.5,3.8-14.4c11.1-5.6,28.9-9.1,32.6-23.9c2.9-11.4,1.9-43.6,1-56.5c-0.7-10-3.5-20-8.6-27.8
				c-4.5-6.9-13.9-15.9-20.1-16.3c-8-0.4-17.6,7.6-24.9,12.5c-6.7,4.4-15.9,10.4-18.2,18.2c-3.4,11.2-2.2,28.1-2.9,41.2
				c-0.7,13.3-3.7,27.9,2.9,37.4c12.1,0.3,26-0.4,28.7,13.4c-4.5,6.5-5.3,11.8-11.5,17.2c1.3,2.5,6.9-7.8,7.7-2.9
				c3.1,2.3,2.5,8.3,3.8,12.5c-15.8,4.1-35.5,1.8-55.5,1c-4.6-0.8-3.3-7.6-9.6-6.7c-1.8,7.3,7.1,3.8,7.7,8.6
				c-14,4.1-31.4,4.6-48.8,2.9c-7.5-0.7-13.6-5.6-20.1-6.7c-10.5-1.8-23.1,2.2-35.4,2.9c-14.8,0.8-33.8,0.7-45-1.9
				c-4.8,0-0.6-8.9-7.7-6.7c3.8-2.9-1.4-5.6-1.9-9.6c4.2-4.1,3.6-9.6,6.7-13.4c7.8-9.4,22.7-10.5,25.9-23c1.9-7.7-0.3-19.4,0-29.7
				c0.6-20.1,1.7-36.4,1.9-57.5c-1.1-1-6.5,1.7-8.6,2.9c-7-5.5-12-15.8-21.1-16.3c-11-0.6-36,18.7-41.2,28.7c-2.5,1-5.8,1.2-6.7,3.8
				c-3.4,9.6-4.5,19.6,2.9,25.9c0.9,16.3-6.5,39.1,1.9,50.8c10,0.2,23.2-0.5,28.7,10.5c-0.2,11.9-2.6,21.7-4.8,31.6
				c-13.9,0.3-33-0.2-49.8,0c-4.3-0.5-4.3,3.4-7.7,3.8c-30.3,2-81.4,2.6-69.9-27.8c4.1-10.8,21.2-11.7,36.4-13.4
				c-1.2-20,6.2-33.3,4.8-56.5c-0.8-13-1-34.8-5.7-42.1c-5.4-8.4-28.5-5.5-34.5-19.2c-5.7-12.9-2.7-30.5,20.1-27.8
				c3.4,0.4,7.1,3.2,11.5,3.8c12.6,1.8,28.8-9.9,41.2-7.7c6.4,1.2,9.1,7.2,14.4,7.7c5.6,0.5,18.2-5.4,24.9-6.7
				c19.9-3.9,42.9-6.5,63.2-3.8c35.1,4.6,38.4,42.2,56.5,66.1c-2.3,19.2,3.1,39.3,0,55.5c-0.9,4.4-4.4,7.5-4.8,11.5
				c-0.8,9.2,6.1,14.8,7.7,22c9.3,0,18.5,0,27.8,0c-2.7-18.1,5-33,3.8-55.5c-0.7-13.5-1-34.7-5.7-42.1c-6.2-9.6-28.7-5.9-34.5-19.2
				c-3.5-7.9-1.8-16,1.9-24.9c10.6-6.1,17.7-2.1,26.8,0c15.9,3.6,30.1-9.2,44.1-6.7c4.6,0.8,8.9,7.2,14.4,7.7
				c6,0.5,16.8-5.1,24.9-6.7c17.9-3.6,40.1-6.5,63.2-3.8c35.2,4,37.9,41.6,56.5,66.1c-2.2,19.2,3,39.2,0,55.5
				c-0.8,4.4-4.4,7.4-4.8,11.5c-0.8,9.2,6.2,14.9,7.7,22C1491.5,246.5,1504.7,244.9,1514.1,247z"/>
			<path class="st1" d="M1152.1,273.8c1-4.6,10.6-3.7,8.6,2.9C1157.6,275.9,1154.7,274.9,1152.1,273.8z"/>
			<path class="st0" d="M972,14.2c23.6-3.6,54.8,15.2,46.9,42.1c-4.6,15.7-38.4,26.6-58.4,20.1c-16.1-5.2-24.2-29.5-17.2-45
				C947.3,22.6,956.5,16.6,972,14.2z"/>
			<path class="st0" d="M1004.6,156c1.1,10.6,6.7,18.3,4.8,28.7c1.8,3.3-3.9,4.1-4.8,6.7c-1.6,4.8,1.4,14,0,21.1
				c-0.8,4.3-4.3,8.3-4.8,11.5c-2.2,15.6,11.7,32.7,3.8,49.8c-11.1,9.7-36.5,6.7-52.7,4.8c-5.4-11.4-8.8-21.5-7.7-35.4
				c0.3-3.2,2.4-6.5,2.9-10.5c0.4-3.2-0.5-7.3,0-10.5c0.9-5.8,4.9-11.2,4.8-16.3c-0.1-4.7-4-8.6-4.8-13.4c-1.8-11.1-1.9-29.2,0-41.2
				c1.1-6.8,6.6-12.9,7.7-19.2c2.4-14.3-0.5-29.7,11.5-38.3c9.3-3.4,25.9-3.9,37.4-1.9C1015.6,108,1002.1,133.4,1004.6,156z"/>
			<path class="st0" d="M928.9,36.3c2.5,4.2-0.1,18.4,2.9,24.9c-127.1-1-264,0-396.5,0c-110.3,0-179.7,0-290.2,0
				c-13.5,0-29.9-0.1-46.9-3.8c-4.3-0.9-36.1-3.7-34.5-15.3c0.9-6.5,18-8.1,24.9-8.6c26.4-2,55.4,4.8,85.2,4.8
				c86.6,0,192.3-6.3,279.7-1c28.2,1.7,57.2-0.8,86.2-1C731.9,35.7,839.6,37,928.9,36.3z"/>
			<path class="st0" d="M800.6,86.1c47.6,3.2,70,41.9,69,89.1c-9.4,14.2-31.2,16.1-53.6,17.2c22.3,1,53-1.2,49.8,23
				c-1.2,9.3-16.4,20.8-23.9,27.8c-9.7,8.9-17.6,18.3-26.8,23.9c-31.6,19.5-92.7,18-116.8-8.6c0.2,7.5-2.9,11.7-3.8,18.2
				c-46.6-2.6-93.5,12.5-132.2-2.9c-3.1,1.9-10,4.3-13.4,2.9c-1.2-9.1,2.5-8.1,3.8-15.3c2.6-4.3-4.9-5.6-2.9-12.5
				c2.8-1.3,3.9-4.4,6.7-5.7c5.8,0.6,4.6,5.8,10.5,6.7c10.9,1.7,32.5-12.4,35.4-23.9c1.9-7.6-0.3-19.5,0-29.7
				c0.6-19.3,3-37.8-6.7-53.6c-4.9-8.1-15-16.9-21.1-17.2c-8.3-0.5-17.9,7.8-24.9,12.5c-7,4.6-15.7,10.1-18.2,18.2
				c-3.1,10.1-2.2,25.3-2.9,37.4c-0.7,12.6-1.6,25.5,0,37.4c4,6.9,16.8,4.9,21.1,11.5c-1.6,8.6-7.5,7.1-8.6,13.4
				c-1.1,6.3,7.8,10.6,3.8,20.1c-14.4,3.9-36.4-3.2-47.9,4.8c-28.5-1.9-58.7,5.1-85.2-1.9c-8.1-2.1-13.5-10.9-22-10.5
				c-10.4,0.5-12.1,11.2-20.1,13.4c-10.8,3-38.1-1.3-50.8-2.9c-16.1-2-35.8-4-45-10.5c-2.5-1.8-13.7-12.6-15.3-16.3
				c-3.2-7.2-3.9-21.8-6.7-34.5c-2.6-11.8-5.1-24.5-5.7-34.5c-0.6-9-1.6-23.2,0-29.7c1.2-5.1,5-6.8,4.8-11.5
				c-0.7-14.8-18.9-12.5-34.5-14.4c-1.8-1-3.9-1.8-2.9-5.7c-3.4,1.1-2.4,6.5-4.8,8.6c-22.6,0.2-41-1.4-55.5,6.7
				c1,31.2-2.9,67.4,3.8,92.9c6.2,2.1,13.5,3.1,21.1,3.8c1.6-23.5,15.7-73.4,46.9-56.5c10.9,5.9,17.8,40.6,13.4,58.4
				c-4.6,19-31.3,43.9-47.9,46.9c-13.7,2.5-28.4-2.5-43.1-5.7c-21.6-4.8-34.1-5.4-44.1-22c-3.5-5.8-8.5-12.8-10.5-18.2
				c-4.6-12.4-5.3-32.5-3.8-46c0.4-4,3.2-8.3,3.8-13.4c1.6-11.9,0.3-35.4-4.8-44.1c-4.6-7.9-17.8-5.1-23-13.4
				c-3.6-5.6-3.2-20.2,1.9-24.9c11.7-1.6,24.8,0.2,28.7-9.6c4.5-11.2-2.1-24.6,1.9-33.5c5.1-11.3,31-16.6,43.1-8.6
				c13.4,8.9,9.1,32.3,16.3,46c18.3-0.9,48.3-6.7,58.4,7.7c20.4-9.8,52.9-6.8,84.3-7.7c1.9,2.5,8.1,2.9,10.5,6.7
				c7.7,12-4.5,26.9-6.7,41.2c-5.3,35,1.8,75.4,19.2,90c15.1-2.2,31.6,3.1,44.1,0c9.4-2.3,12-11.6,17.2-17.2c0-23,0-46,0-69
				c-11.4-5.2-26.8-6.4-33.5-16.3c-1.7-19,4.9-29.5,16.3-35.4c23.4,0.8,49.1-3.6,69,5.7c11.3-4.3,15.3,1.6,25.9,2.9
				c13.5,1.6,26.3-10.2,40.2-7.7c4.5,0.8,8.8,7.2,14.4,7.7c5.7,0.5,16.4-5,24.9-6.7c26.2-5.3,69.5-8,86.2,6.7
				c7.8,6.8,14,18.1,19.2,28.7c5.1,10.6,10.6,21,15.3,31.6c-0.3-5.6,3.1,1.3,5.7-2.9c5.6-6.9,9.4-15.5,15.3-22
				c0.3-4.5,3-6.6,2.9-11.5c3.2,0,4.8,1.6,8.6,1c0.1-4.8-1.4-7,1-10.5C713.7,85.4,756.9,83.1,800.6,86.1z M810.1,199.1
				c1.1-2,5.1-4.6,2.9-6.7c-27.7,1.8-69.3,1.3-91,0c-1.3,4.1-2.1,8.7-1.9,14.4c12.5,10.8,27,19.6,42.1,27.8
				c8.9-8.5,23.3-5.1,33.5-11.5C802,219.1,806.7,205.2,810.1,199.1z M811.1,156c4.9-31.1-26-30.5-54.6-30.6
				c-14.6-0.1-30.9,12.5-27.8,23C755.6,154.6,782.7,163.6,811.1,156z M663.6,242.2c6.7,0,13.4,0,20.1,0c-9-14.3-14.6-32-23-46.9
				C660,216.3,651.8,226.4,663.6,242.2z M677,258.5c4.8,1.4,4.7-4.9,1-4.8C677.2,254.8,676.7,256.2,677,258.5z M464.4,233.6
				c5-30.2,6.5-64.9-1-93.9c-3.9-2.8-8.5-4.9-14.4-5.7C447.1,167.7,433.1,221.9,464.4,233.6z"/>
			<path class="st1" d="M555.4,239.3c-2.4,1.7-7.1-2.4-10.5-2.9C548.7,233.3,553.3,237.5,555.4,239.3z"/>
		</g>
		<g>
		</g>
	</g>
</g>
</svg>
